<svg width="320" height="144" viewBox="0 0 320 144" fill="none" xmlns="http://www.w3.org/2000/svg">
<path d="M137.486 101.707C137.486 101.668 137.488 101.639 137.493 101.601C138.382 95.3437 141.492 42.3419 184.448 38.4849C211.732 37.3267 242.014 60.0722 273.07 60.0722C290.165 60.0722 305.802 53.1431 318.191 40.0006C318.442 39.7338 318.895 39.9092 318.895 40.2759V84.1792C318.895 84.9933 318.585 85.7796 318.017 86.3621C305.281 99.4027 289.331 106.277 271.934 106.277C240.878 106.277 214.367 84.6893 183.312 84.6893C166.543 84.6893 151.178 91.3562 138.905 104.014C138.394 104.541 137.486 104.185 137.486 103.452V101.707Z" fill="url(#paint0_linear_959_13857)"/>
<path d="M0.374951 43.6573V28.9868H70.5328V43.6573H44.268V114.643H26.6398V43.6573H0.374951ZM76.8411 114.643H57.6749L87.3707 28.9868H110.205L139.782 114.643H120.734L114.286 94.8855H83.289L76.8411 114.643ZM87.7848 81.0432H109.79L99.0834 48.2714H98.4919L87.7848 81.0432ZM143.076 28.9868L163.898 94.294H164.727L185.667 28.9868H205.307L175.729 114.643H152.896L123.2 28.9868H143.076ZM212.585 114.643V28.9868H270.084V43.6573H230.332V64.4798H267.126V79.1503H230.332V99.9729H270.202V114.643H212.585Z" fill="white"/>
<defs>
<linearGradient id="paint0_linear_959_13857" x1="310.663" y1="30.794" x2="112.673" y2="126.271" gradientUnits="userSpaceOnUse">
<stop stop-color="#64B4FF"/>
<stop offset="0.324999" stop-color="#1A5BFF"/>
<stop offset="1" stop-color="#233D81"/>
</linearGradient>
</defs>
</svg>
